<mxfile host="app.diagrams.net" modified="2024-03-05T11:48:47.544Z" agent="Mozilla/5.0 (Windows NT 10.0; Win64; x64) AppleWebKit/537.36 (KHTML, like Gecko) Chrome/122.0.0.0 Safari/537.36 Edg/122.0.0.0" etag="BcRMflJNINeIvV-yYDPG" version="22.1.18" type="github">
  <diagram name="第 1 页" id="hdUWSUmcBa7G8aOpGk7u">
    <mxGraphModel dx="2853" dy="1145" grid="1" gridSize="10" guides="1" tooltips="1" connect="1" arrows="1" fold="1" page="1" pageScale="1" pageWidth="827" pageHeight="1169" math="0" shadow="0">
      <root>
        <mxCell id="0" />
        <mxCell id="1" parent="0" />
        <mxCell id="DtTEUUSKl7Y4lrnGpXiY-3" style="edgeStyle=orthogonalEdgeStyle;rounded=0;orthogonalLoop=1;jettySize=auto;html=1;entryX=0.5;entryY=0;entryDx=0;entryDy=0;" edge="1" parent="1" source="DtTEUUSKl7Y4lrnGpXiY-1" target="DtTEUUSKl7Y4lrnGpXiY-5">
          <mxGeometry relative="1" as="geometry">
            <mxPoint x="365" y="210" as="targetPoint" />
          </mxGeometry>
        </mxCell>
        <mxCell id="DtTEUUSKl7Y4lrnGpXiY-33" style="edgeStyle=orthogonalEdgeStyle;rounded=0;orthogonalLoop=1;jettySize=auto;html=1;entryX=0.5;entryY=0;entryDx=0;entryDy=0;" edge="1" parent="1" source="DtTEUUSKl7Y4lrnGpXiY-1" target="DtTEUUSKl7Y4lrnGpXiY-48">
          <mxGeometry relative="1" as="geometry">
            <mxPoint x="770" y="660" as="targetPoint" />
          </mxGeometry>
        </mxCell>
        <mxCell id="DtTEUUSKl7Y4lrnGpXiY-1" value="Actor" style="shape=umlActor;verticalLabelPosition=bottom;verticalAlign=top;html=1;outlineConnect=0;" vertex="1" parent="1">
          <mxGeometry x="350" y="90" width="30" height="60" as="geometry" />
        </mxCell>
        <mxCell id="DtTEUUSKl7Y4lrnGpXiY-9" style="edgeStyle=orthogonalEdgeStyle;rounded=0;orthogonalLoop=1;jettySize=auto;html=1;exitX=0.5;exitY=1;exitDx=0;exitDy=0;entryX=0.5;entryY=0;entryDx=0;entryDy=0;" edge="1" parent="1" source="DtTEUUSKl7Y4lrnGpXiY-5" target="DtTEUUSKl7Y4lrnGpXiY-8">
          <mxGeometry relative="1" as="geometry" />
        </mxCell>
        <mxCell id="DtTEUUSKl7Y4lrnGpXiY-5" value="开启充电" style="rounded=1;whiteSpace=wrap;html=1;absoluteArcSize=1;arcSize=14;strokeWidth=2;" vertex="1" parent="1">
          <mxGeometry x="315" y="220" width="100" height="100" as="geometry" />
        </mxCell>
        <mxCell id="DtTEUUSKl7Y4lrnGpXiY-11" style="edgeStyle=orthogonalEdgeStyle;rounded=0;orthogonalLoop=1;jettySize=auto;html=1;entryX=0.5;entryY=0;entryDx=0;entryDy=0;" edge="1" parent="1" source="DtTEUUSKl7Y4lrnGpXiY-8" target="DtTEUUSKl7Y4lrnGpXiY-16">
          <mxGeometry relative="1" as="geometry">
            <mxPoint x="240" y="480" as="targetPoint" />
          </mxGeometry>
        </mxCell>
        <mxCell id="DtTEUUSKl7Y4lrnGpXiY-8" value="支付方式" style="rhombus;whiteSpace=wrap;html=1;" vertex="1" parent="1">
          <mxGeometry x="317" y="370" width="96" height="90" as="geometry" />
        </mxCell>
        <mxCell id="DtTEUUSKl7Y4lrnGpXiY-15" value="预付款充电" style="text;html=1;align=center;verticalAlign=middle;resizable=0;points=[];autosize=1;strokeColor=none;fillColor=none;" vertex="1" parent="1">
          <mxGeometry x="230" y="378" width="80" height="30" as="geometry" />
        </mxCell>
        <mxCell id="DtTEUUSKl7Y4lrnGpXiY-18" style="edgeStyle=orthogonalEdgeStyle;rounded=0;orthogonalLoop=1;jettySize=auto;html=1;entryX=0.5;entryY=0;entryDx=0;entryDy=0;" edge="1" parent="1" source="DtTEUUSKl7Y4lrnGpXiY-16" target="DtTEUUSKl7Y4lrnGpXiY-21">
          <mxGeometry relative="1" as="geometry">
            <mxPoint x="-10" y="640" as="targetPoint" />
          </mxGeometry>
        </mxCell>
        <mxCell id="DtTEUUSKl7Y4lrnGpXiY-79" style="edgeStyle=orthogonalEdgeStyle;rounded=0;orthogonalLoop=1;jettySize=auto;html=1;entryX=0.5;entryY=0;entryDx=0;entryDy=0;" edge="1" parent="1" source="DtTEUUSKl7Y4lrnGpXiY-16" target="DtTEUUSKl7Y4lrnGpXiY-57">
          <mxGeometry relative="1" as="geometry" />
        </mxCell>
        <mxCell id="DtTEUUSKl7Y4lrnGpXiY-16" value="商户直接收款" style="rhombus;whiteSpace=wrap;html=1;" vertex="1" parent="1">
          <mxGeometry x="40" y="485" width="100" height="95" as="geometry" />
        </mxCell>
        <mxCell id="DtTEUUSKl7Y4lrnGpXiY-19" value="否" style="text;html=1;align=center;verticalAlign=middle;resizable=0;points=[];autosize=1;strokeColor=none;fillColor=none;" vertex="1" parent="1">
          <mxGeometry y="503" width="40" height="30" as="geometry" />
        </mxCell>
        <mxCell id="DtTEUUSKl7Y4lrnGpXiY-20" value="是" style="text;html=1;align=center;verticalAlign=middle;resizable=0;points=[];autosize=1;strokeColor=none;fillColor=none;" vertex="1" parent="1">
          <mxGeometry x="150" y="500" width="40" height="30" as="geometry" />
        </mxCell>
        <mxCell id="DtTEUUSKl7Y4lrnGpXiY-54" style="edgeStyle=orthogonalEdgeStyle;rounded=0;orthogonalLoop=1;jettySize=auto;html=1;entryX=0;entryY=0.5;entryDx=0;entryDy=0;" edge="1" parent="1" source="DtTEUUSKl7Y4lrnGpXiY-21" target="DtTEUUSKl7Y4lrnGpXiY-51">
          <mxGeometry relative="1" as="geometry">
            <Array as="points">
              <mxPoint x="-50" y="940" />
            </Array>
          </mxGeometry>
        </mxCell>
        <mxCell id="DtTEUUSKl7Y4lrnGpXiY-21" value="支付参数&lt;br&gt;商户号：800000797540001&lt;br&gt;平台子商户号：充动" style="rounded=1;whiteSpace=wrap;html=1;absoluteArcSize=1;arcSize=14;strokeWidth=2;" vertex="1" parent="1">
          <mxGeometry x="-130" y="660" width="160" height="100" as="geometry" />
        </mxCell>
        <mxCell id="DtTEUUSKl7Y4lrnGpXiY-22" value="支付参数&lt;br&gt;商户号：800000797540002&lt;br&gt;平台子商户号：分账收款商户号" style="rounded=1;whiteSpace=wrap;html=1;absoluteArcSize=1;arcSize=14;strokeWidth=2;" vertex="1" parent="1">
          <mxGeometry x="150" y="660" width="200" height="100" as="geometry" />
        </mxCell>
        <mxCell id="DtTEUUSKl7Y4lrnGpXiY-42" value="储值" style="text;html=1;align=center;verticalAlign=middle;resizable=0;points=[];autosize=1;strokeColor=none;fillColor=none;" vertex="1" parent="1">
          <mxGeometry x="-50" y="80" width="50" height="30" as="geometry" />
        </mxCell>
        <mxCell id="DtTEUUSKl7Y4lrnGpXiY-45" value="支付参数&lt;br&gt;商户号：800000797540001&lt;br&gt;平台子商户号：充动" style="rounded=1;whiteSpace=wrap;html=1;absoluteArcSize=1;arcSize=14;strokeWidth=2;" vertex="1" parent="1">
          <mxGeometry x="1180" y="278" width="160" height="100" as="geometry" />
        </mxCell>
        <mxCell id="DtTEUUSKl7Y4lrnGpXiY-64" style="edgeStyle=orthogonalEdgeStyle;rounded=0;orthogonalLoop=1;jettySize=auto;html=1;entryX=0;entryY=0.5;entryDx=0;entryDy=0;exitX=0.5;exitY=1;exitDx=0;exitDy=0;" edge="1" parent="1" source="DtTEUUSKl7Y4lrnGpXiY-48" target="DtTEUUSKl7Y4lrnGpXiY-51">
          <mxGeometry relative="1" as="geometry" />
        </mxCell>
        <mxCell id="DtTEUUSKl7Y4lrnGpXiY-48" value="支付参数&lt;br&gt;商户号：800000797540002&lt;br&gt;平台子商户号：充动" style="rounded=1;whiteSpace=wrap;html=1;absoluteArcSize=1;arcSize=14;strokeWidth=2;" vertex="1" parent="1">
          <mxGeometry x="-330" y="660" width="160" height="100" as="geometry" />
        </mxCell>
        <mxCell id="DtTEUUSKl7Y4lrnGpXiY-67" style="edgeStyle=orthogonalEdgeStyle;rounded=0;orthogonalLoop=1;jettySize=auto;html=1;" edge="1" parent="1" source="DtTEUUSKl7Y4lrnGpXiY-51" target="DtTEUUSKl7Y4lrnGpXiY-66">
          <mxGeometry relative="1" as="geometry" />
        </mxCell>
        <mxCell id="DtTEUUSKl7Y4lrnGpXiY-52" value="储值充电" style="text;html=1;align=center;verticalAlign=middle;resizable=0;points=[];autosize=1;strokeColor=none;fillColor=none;" vertex="1" parent="1">
          <mxGeometry x="400" y="378" width="70" height="30" as="geometry" />
        </mxCell>
        <mxCell id="DtTEUUSKl7Y4lrnGpXiY-80" style="edgeStyle=orthogonalEdgeStyle;rounded=0;orthogonalLoop=1;jettySize=auto;html=1;entryX=0;entryY=0.5;entryDx=0;entryDy=0;" edge="1" parent="1" source="DtTEUUSKl7Y4lrnGpXiY-57" target="DtTEUUSKl7Y4lrnGpXiY-51">
          <mxGeometry relative="1" as="geometry" />
        </mxCell>
        <mxCell id="DtTEUUSKl7Y4lrnGpXiY-57" value="支付参数&lt;br&gt;商户号：800000797540002&lt;br&gt;平台子商户号：分账收款商户号" style="rounded=1;whiteSpace=wrap;html=1;absoluteArcSize=1;arcSize=14;strokeWidth=2;" vertex="1" parent="1">
          <mxGeometry x="147" y="660" width="203" height="100" as="geometry" />
        </mxCell>
        <mxCell id="DtTEUUSKl7Y4lrnGpXiY-72" style="edgeStyle=orthogonalEdgeStyle;rounded=0;orthogonalLoop=1;jettySize=auto;html=1;entryX=0.5;entryY=0;entryDx=0;entryDy=0;" edge="1" parent="1" source="DtTEUUSKl7Y4lrnGpXiY-66" target="DtTEUUSKl7Y4lrnGpXiY-71">
          <mxGeometry relative="1" as="geometry" />
        </mxCell>
        <mxCell id="DtTEUUSKl7Y4lrnGpXiY-66" value="充电完成" style="rounded=1;whiteSpace=wrap;html=1;absoluteArcSize=1;arcSize=14;strokeWidth=2;" vertex="1" parent="1">
          <mxGeometry x="317" y="1070" width="100" height="100" as="geometry" />
        </mxCell>
        <mxCell id="DtTEUUSKl7Y4lrnGpXiY-74" style="edgeStyle=orthogonalEdgeStyle;rounded=0;orthogonalLoop=1;jettySize=auto;html=1;" edge="1" parent="1" source="DtTEUUSKl7Y4lrnGpXiY-71" target="DtTEUUSKl7Y4lrnGpXiY-73">
          <mxGeometry relative="1" as="geometry" />
        </mxCell>
        <mxCell id="DtTEUUSKl7Y4lrnGpXiY-71" value="核销写入" style="rounded=1;whiteSpace=wrap;html=1;absoluteArcSize=1;arcSize=14;strokeWidth=2;" vertex="1" parent="1">
          <mxGeometry x="317" y="1230" width="100" height="100" as="geometry" />
        </mxCell>
        <mxCell id="DtTEUUSKl7Y4lrnGpXiY-73" value="商户提现" style="rounded=1;whiteSpace=wrap;html=1;absoluteArcSize=1;arcSize=14;strokeWidth=2;" vertex="1" parent="1">
          <mxGeometry x="317" y="1400" width="100" height="100" as="geometry" />
        </mxCell>
        <mxCell id="DtTEUUSKl7Y4lrnGpXiY-75" value="" style="edgeStyle=orthogonalEdgeStyle;rounded=0;orthogonalLoop=1;jettySize=auto;html=1;exitX=1;exitY=0.5;exitDx=0;exitDy=0;entryX=1;entryY=0.5;entryDx=0;entryDy=0;" edge="1" parent="1" source="DtTEUUSKl7Y4lrnGpXiY-8" target="DtTEUUSKl7Y4lrnGpXiY-66">
          <mxGeometry relative="1" as="geometry">
            <mxPoint x="450" y="1080" as="targetPoint" />
            <mxPoint x="413" y="415" as="sourcePoint" />
            <Array as="points">
              <mxPoint x="550" y="415" />
              <mxPoint x="550" y="1120" />
            </Array>
          </mxGeometry>
        </mxCell>
        <mxCell id="DtTEUUSKl7Y4lrnGpXiY-51" value="支付" style="rounded=1;whiteSpace=wrap;html=1;absoluteArcSize=1;arcSize=14;strokeWidth=2;" vertex="1" parent="1">
          <mxGeometry x="317" y="890" width="100" height="100" as="geometry" />
        </mxCell>
      </root>
    </mxGraphModel>
  </diagram>
</mxfile>
